<svg width="1920" height="1080" viewBox="0 0 1920 1080" fill="none" xmlns="http://www.w3.org/2000/svg">
<g clip-path="url(#clip0_358_70)">
<rect width="1920" height="1080" fill="black"/>
<path opacity="0.04" d="M-1.95694 559.805L40.4075 371.965L129.51 359.288L51.3336 653.23L-31.8289 665.062L-188.884 404.587L-95.4247 391.29L-1.95694 559.805ZM190.182 633.476L150.743 356.267L237.866 343.872L277.305 621.081L190.182 633.476ZM472.766 446.61L611.23 573.573L503.119 588.954L383.713 470.996L402.531 603.265L316.993 615.434L277.554 338.226L363.092 326.056L381.065 452.384L462.095 311.971L570.207 296.589L472.766 446.61ZM942.284 526.473L847.637 539.938L826.051 498.97L712.396 515.14L703.092 560.503L612.802 573.349L689.79 279.576L786.813 265.772L942.284 526.473ZM747.054 349.81L725.385 453.092L796.272 443.007L747.054 349.81ZM936.454 463.466L932.679 436.933L1015.05 425.214L1016.68 436.698C1018.54 449.767 1023.52 453.503 1036.59 451.644L1115 440.488C1128.07 438.629 1131.8 433.653 1129.94 420.585L1128.53 410.684C1126.68 397.616 1122.66 394.955 1108.63 395.739L995.547 401.727C950.574 403.681 930.104 390.432 924.075 348.059L918.779 310.834C912.638 267.668 929.678 245.447 972.447 239.362L1118.97 218.515C1161.74 212.431 1184.3 229.018 1190.44 272.183L1193.65 294.756L1111.28 306.475L1110.16 298.555C1108.3 285.487 1103.32 281.75 1090.25 283.609L1021.35 293.413C1008.28 295.272 1004.54 300.248 1006.4 313.316L1007.13 318.465C1008.94 331.137 1013.8 334.081 1027.04 333.41L1140.12 327.422C1184.98 324.676 1205.51 338.321 1211.59 381.09L1217.62 423.463C1223.76 466.629 1206.72 488.85 1163.95 494.935L1007.93 517.134C965.156 523.219 942.595 506.631 936.454 463.466ZM1560.28 438.549L1465.63 452.015L1444.05 411.047L1330.39 427.217L1321.09 472.58L1230.8 485.425L1307.79 191.652L1404.81 177.849L1560.28 438.549ZM1365.05 261.887L1343.38 365.169L1414.27 355.084L1365.05 261.887ZM1763.41 281.573L1741.83 129.9L1824.2 118.181L1863.64 395.39L1794.73 405.193L1638.68 268.208L1660.88 424.237L1578.51 435.956L1539.07 158.747L1611.54 148.437L1763.41 281.573ZM2213.08 345.674L2118.43 359.139L2096.85 318.171L1983.19 334.341L1973.89 379.704L1883.6 392.55L1960.59 98.777L2057.61 84.9734L2213.08 345.674ZM2017.85 169.011L1996.18 272.293L2067.07 262.208L2017.85 169.011Z" fill="white"/>
<path opacity="0.04" d="M141.411 864.65L183.775 676.81L272.878 664.133L194.702 958.075L111.539 969.907L-45.5157 709.432L47.9432 696.135L141.411 864.65ZM333.55 938.321L294.111 661.112L381.234 648.717L420.673 925.926L333.55 938.321ZM616.134 751.455L754.598 878.418L646.486 893.799L527.081 775.842L545.899 908.11L460.361 920.279L420.922 643.071L506.46 630.901L524.433 757.229L605.463 616.816L713.575 601.434L616.134 751.455ZM1085.65 831.318L991.005 844.784L969.419 803.816L855.763 819.986L846.46 865.348L756.169 878.194L833.158 584.421L930.181 570.617L1085.65 831.318ZM890.422 654.656L868.753 757.937L939.639 747.852L890.422 654.656ZM1079.82 768.311L1076.05 741.778L1158.42 730.059L1160.05 741.543C1161.91 754.612 1166.89 758.348 1179.95 756.489L1258.37 745.333C1271.43 743.474 1275.17 738.498 1273.31 725.43L1271.9 715.529C1270.04 702.461 1266.03 699.8 1252 700.584L1138.91 706.572C1093.94 708.526 1073.47 695.277 1067.44 652.904L1062.15 615.679C1056.01 572.513 1073.05 550.292 1115.81 544.207L1262.34 523.361C1305.11 517.276 1327.67 533.863 1333.81 577.029L1337.02 599.601L1254.65 611.32L1253.53 603.4C1251.67 590.332 1246.69 586.595 1233.62 588.455L1164.72 598.258C1151.65 600.117 1147.91 605.093 1149.77 618.162L1150.5 623.31C1152.31 635.982 1157.17 638.926 1170.41 638.255L1283.49 632.267C1328.35 629.521 1348.88 643.166 1354.96 685.935L1360.99 728.308C1367.13 771.474 1350.09 793.695 1307.32 799.78L1151.29 821.979C1108.52 828.064 1085.96 811.476 1079.82 768.311ZM1703.65 743.394L1609 756.86L1587.41 715.892L1473.76 732.062L1464.46 777.425L1374.16 790.27L1451.15 496.498L1548.18 482.694L1703.65 743.394ZM1508.42 566.732L1486.75 670.014L1557.63 659.929L1508.42 566.732ZM1906.77 586.418L1885.2 434.746L1967.57 423.026L2007 700.235L1938.1 710.038L1782.05 573.053L1804.25 729.082L1721.88 740.801L1682.44 463.592L1754.91 453.282L1906.77 586.418ZM2356.45 650.519L2261.8 663.985L2240.22 623.017L2126.56 639.187L2117.26 684.549L2026.97 697.395L2103.95 403.622L2200.98 389.818L2356.45 650.519ZM2161.22 473.857L2139.55 577.138L2210.44 567.053L2161.22 473.857Z" fill="white"/>
<path opacity="0.04" d="M26.381 1206.26L68.7454 1018.42L157.848 1005.74L79.6715 1299.68L-3.49102 1311.52L-160.546 1051.04L-67.0868 1037.74L26.381 1206.26ZM218.52 1279.93L179.081 1002.72L266.204 990.325L305.643 1267.53L218.52 1279.93ZM501.104 1093.06L639.568 1220.03L531.456 1235.41L412.051 1117.45L430.869 1249.72L345.331 1261.89L305.892 984.679L391.43 972.509L409.403 1098.84L490.433 958.424L598.545 943.043L501.104 1093.06ZM970.622 1172.93L875.975 1186.39L854.389 1145.42L740.733 1161.59L731.43 1206.96L641.139 1219.8L718.128 926.029L815.151 912.226L970.622 1172.93ZM775.392 996.264L753.723 1099.55L824.609 1089.46L775.392 996.264ZM964.792 1109.92L961.017 1083.39L1043.39 1071.67L1045.02 1083.15C1046.88 1096.22 1051.86 1099.96 1064.92 1098.1L1143.34 1086.94C1156.4 1085.08 1160.14 1080.11 1158.28 1067.04L1156.87 1057.14C1155.01 1044.07 1151 1041.41 1136.97 1042.19L1023.88 1048.18C978.912 1050.13 958.441 1036.89 952.413 994.512L947.117 957.287C940.976 914.122 958.015 891.9 1000.78 885.815L1147.31 864.969C1190.08 858.884 1212.64 875.471 1218.78 918.637L1221.99 941.209L1139.62 952.928L1138.5 945.008C1136.64 931.94 1131.66 928.203 1118.59 930.063L1049.69 939.866C1036.62 941.725 1032.88 946.701 1034.74 959.77L1035.47 964.918C1037.28 977.59 1042.14 980.535 1055.38 979.863L1168.46 973.875C1213.32 971.129 1233.85 984.774 1239.93 1027.54L1245.96 1069.92C1252.1 1113.08 1235.06 1135.3 1192.29 1141.39L1036.26 1163.59C993.494 1169.67 970.933 1153.08 964.792 1109.92ZM1588.62 1085L1493.97 1098.47L1472.38 1057.5L1358.73 1073.67L1349.43 1119.03L1259.13 1131.88L1336.12 838.106L1433.15 824.302L1588.62 1085ZM1393.39 908.34L1371.72 1011.62L1442.6 1001.54L1393.39 908.34ZM1791.74 928.026L1770.17 776.354L1852.54 764.635L1891.97 1041.84L1823.07 1051.65L1667.02 914.661L1689.22 1070.69L1606.85 1082.41L1567.41 805.201L1639.88 794.89L1791.74 928.026ZM2241.42 992.127L2146.77 1005.59L2125.19 964.625L2011.53 980.795L2002.23 1026.16L1911.94 1039L1988.92 745.23L2085.95 731.427L2241.42 992.127ZM2046.19 815.465L2024.52 918.746L2095.41 908.661L2046.19 815.465Z" fill="white"/>
</g>
<defs>
<clipPath id="clip0_358_70">
<rect width="1920" height="1080" fill="white"/>
</clipPath>
</defs>
</svg>
