<svg width="36" height="36" viewBox="0 0 36 36" fill="none" xmlns="http://www.w3.org/2000/svg">
<path d="M24.8571 17.1429C24.8571 15.9771 24.7543 14.8457 24.6171 13.7143H30.4114C30.6857 14.8114 30.8571 15.96 30.8571 17.1429C30.8571 17.7771 30.8057 18.3943 30.72 18.9943C31.9029 19.1657 33 19.5429 34.0114 20.0914C34.1829 19.1314 34.2857 18.1543 34.2857 17.1429C34.2857 7.71429 26.5714 0 17.1429 0C7.66286 0 0 7.71429 0 17.1429C0 26.5714 7.71429 34.2857 17.1429 34.2857C18.1543 34.2857 19.1314 34.1829 20.0914 34.0114C19.3029 32.5714 18.8571 30.9086 18.8571 29.1429C18.8571 28.6457 18.9086 28.1657 18.9771 27.6857C18.4286 28.7657 17.8286 29.8114 17.1429 30.7886C15.72 28.7314 14.5714 26.4514 13.8686 24H20.2457C21.2743 22.2171 22.8171 20.7771 24.6857 19.8857C24.7886 18.9771 24.8571 18.0686 24.8571 17.1429ZM17.1429 3.48C18.5657 5.53714 19.7143 7.83429 20.4171 10.2857H13.8686C14.5714 7.83429 15.72 5.53714 17.1429 3.48ZM3.87429 20.5714C3.6 19.4743 3.42857 18.3257 3.42857 17.1429C3.42857 15.96 3.6 14.8114 3.87429 13.7143H9.66857C9.53143 14.8457 9.42857 15.9771 9.42857 17.1429C9.42857 18.3086 9.53143 19.44 9.66857 20.5714H3.87429ZM5.28 24H10.2857C10.8857 26.1429 11.6571 28.2 12.6857 30.1029C9.54857 29.0229 6.90857 26.8286 5.28 24ZM10.2857 10.2857H5.28C6.90857 7.44 9.54857 5.24571 12.6857 4.18286C11.6571 6.08571 10.8857 8.14286 10.2857 10.2857ZM21.1543 20.5714H13.1314C12.96 19.44 12.8571 18.3086 12.8571 17.1429C12.8571 15.9771 12.96 14.8286 13.1314 13.7143H21.1543C21.3086 14.8286 21.4286 15.9771 21.4286 17.1429C21.4286 18.3086 21.3086 19.44 21.1543 20.5714ZM21.5829 4.18286C24.7371 5.26286 27.36 7.44 29.0057 10.2857H23.9486C23.4 8.14286 22.6114 6.08571 21.5829 4.18286ZM36 27.4286V30.8571H30.8571V36H27.4286V30.8571H22.2857V27.4286H27.4286V22.2857H30.8571V27.4286H36Z" fill="white"/>
</svg>
