<svg width="36" height="52" viewBox="0 0 36 52" fill="none" xmlns="http://www.w3.org/2000/svg">
<path d="M18 11.5714C19.705 11.5714 21.3401 12.2487 22.5457 13.4543C23.7513 14.6599 24.4286 16.295 24.4286 18C24.4286 18.8442 24.2623 19.6802 23.9392 20.4601C23.6162 21.2401 23.1426 21.9487 22.5457 22.5457C21.9487 23.1426 21.2401 23.6162 20.4601 23.9392C19.6802 24.2623 18.8442 24.4286 18 24.4286C16.295 24.4286 14.6599 23.7513 13.4543 22.5457C12.2487 21.3401 11.5714 19.705 11.5714 18C11.5714 16.295 12.2487 14.6599 13.4543 13.4543C14.6599 12.2487 16.295 11.5714 18 11.5714ZM18 0C22.7739 0 27.3523 1.89642 30.7279 5.27208C34.1036 8.64773 36 13.2261 36 18C36 31.5 18 51.4286 18 51.4286C18 51.4286 0 31.5 0 18C0 13.2261 1.89642 8.64773 5.27208 5.27208C8.64773 1.89642 13.2261 0 18 0ZM18 5.14286C14.5901 5.14286 11.3198 6.49744 8.90863 8.90863C6.49745 11.3198 5.14286 14.5901 5.14286 18C5.14286 20.5714 5.14286 25.7143 18 42.9686C30.8571 25.7143 30.8571 20.5714 30.8571 18C30.8571 14.5901 29.5026 11.3198 27.0914 8.90863C24.6802 6.49744 21.4099 5.14286 18 5.14286Z" fill="white"/>
</svg>
