<svg width="2388" height="281" viewBox="0 0 2388 281" fill="none" xmlns="http://www.w3.org/2000/svg">
<path opacity="0.04" d="M164.117 180.055L232.517 0.0552177H322.517L203.717 280.055H119.717L0.917188 0.0552177H95.3172L164.117 180.055ZM343.964 280.055V0.0552177L431.964 0.0552177V280.055H343.964ZM650.052 134.855L769.252 280.055H660.052L558.452 146.455V280.055H472.052V0.0552177H558.452V127.655L658.452 0.0552177H767.652L650.052 134.855ZM1103.64 280.055L1008.04 280.055L992.439 236.455H877.639L862.039 280.055H770.839L888.439 0.0552177L986.439 0.0552177L1103.64 280.055ZM935.239 77.6552L899.239 176.855H970.839L935.239 77.6552ZM1106.74 216.855V190.055H1189.94V201.655C1189.94 214.855 1194.34 219.255 1207.54 219.255H1286.74C1299.94 219.255 1304.34 214.855 1304.34 201.655V191.655C1304.34 178.455 1300.74 175.255 1286.74 174.055L1173.94 164.055C1129.14 159.655 1110.74 143.655 1110.74 100.855V63.2552C1110.74 19.6552 1130.74 0.0552177 1173.94 0.0552177H1321.94C1365.14 0.0552177 1385.14 19.6552 1385.14 63.2552V86.0552H1301.94V78.0552C1301.94 64.8552 1297.54 60.4552 1284.34 60.4552L1214.74 60.4552C1201.54 60.4552 1197.14 64.8552 1197.14 78.0552V83.2552C1197.14 96.0552 1201.54 99.6552 1214.74 100.855L1327.54 110.855C1372.34 114.455 1390.74 130.855 1390.74 174.055V216.855C1390.74 260.455 1370.74 280.055 1327.54 280.055H1169.94C1126.74 280.055 1106.74 260.455 1106.74 216.855ZM1727.86 280.055H1632.26L1616.66 236.455H1501.86L1486.26 280.055H1395.06L1512.66 0.0552177H1610.66L1727.86 280.055ZM1559.46 77.6552L1523.46 176.855L1595.06 176.855L1559.46 77.6552ZM1951.07 153.255V0.0552177H2034.27V280.055H1964.67L1829.47 122.455V280.055H1746.27V0.0552177H1819.47L1951.07 153.255ZM2387.23 280.055H2291.63L2276.03 236.455H2161.23L2145.63 280.055H2054.43L2172.03 0.0552177L2270.03 0.0552177L2387.23 280.055ZM2218.83 77.6552L2182.83 176.855H2254.43L2218.83 77.6552Z" fill="white"/>
</svg>
